<?xml version="1.0" encoding="utf-8"?>
<!-- Generator: Adobe Illustrator 22.1.0, SVG Export Plug-In . SVG Version: 6.00 Build 0)  -->
<svg version="1.1" id="Layer_1" xmlns="http://www.w3.org/2000/svg" xmlns:xlink="http://www.w3.org/1999/xlink" x="0px" y="0px"
	 viewBox="0 0 1111.7 1208.4" style="enable-background:new 0 0 1111.7 1208.4;" xml:space="preserve">
<style type="text/css">
	.st0{opacity:0.6;fill:#0074FF;}
	.st1{opacity:0.6;fill:#0068FF;}
	.st2{opacity:0.6;fill:#A700FF;}
	.st3{fill:url(#SVGID_1_);}
	.st4{fill:#FDF035;}
	.st5{fill:url(#SVGID_2_);}
	.st6{fill:#05E053;}
	.st7{fill:url(#SVGID_3_);}
	.st8{fill:#FF0043;}
	.st9{fill:#FFFFFF;}
	.st10{font-family:'ProductSans-Bold';}
	.st11{font-size:130.9543px;}
</style>
<title>logo-light</title>
<g>
	<g id="Layer_2_1_">
		<g>
			<polygon class="st0" points="573.7,51.9 1102,256.9 1040.2,925.5 573.7,1207.8 111.9,925.5 45.9,258.8 			"/>
			<polygon class="st1" points="537.5,0.6 1065.8,205.6 1004,874.2 537.5,1156.5 75.7,874.2 9.7,207.5 			"/>
			<polygon class="st2" points="560.3,29.2 1088.6,234.2 1026.8,902.8 560.3,1185.1 98.5,902.8 32.5,236.2 			"/>
			<g>
				<linearGradient id="SVGID_1_" gradientUnits="userSpaceOnUse" x1="191.5576" y1="280.9443" x2="389.8778" y2="186.4511">
					<stop  offset="0" style="stop-color:#D20043"/>
					<stop  offset="1" style="stop-color:#FF0043"/>
				</linearGradient>
				<polygon class="st3" points="60.6,253.1 560.3,55.6 560.3,195.5 201.4,338.9 				"/>
				<polygon class="st4" points="560.3,55.6 1060.5,251.3 925.8,338.9 560.3,195.5 				"/>
				<linearGradient id="SVGID_2_" gradientUnits="userSpaceOnUse" x1="989.1248" y1="336.7864" x2="955.3809" y2="676.4099">
					<stop  offset="0" style="stop-color:#D9D627"/>
					<stop  offset="5.021989e-02" style="stop-color:#DBD828"/>
					<stop  offset="0.6395" style="stop-color:#F4E931"/>
					<stop  offset="1" style="stop-color:#FDF035"/>
				</linearGradient>
				<polygon class="st5" points="1060.5,251.3 1002,889.3 874.1,813.2 925.8,338.9 				"/>
				<polygon class="st6" points="1002,889.3 560.3,1158.7 560.3,1006.3 874.1,813.2 				"/>
				<linearGradient id="SVGID_3_" gradientUnits="userSpaceOnUse" x1="514.009" y1="1049.407" x2="300.5351" y2="927.4752">
					<stop  offset="0" style="stop-color:#05B253"/>
					<stop  offset="0.2079" style="stop-color:#05BE53"/>
					<stop  offset="0.6993" style="stop-color:#05D753"/>
					<stop  offset="1" style="stop-color:#05E053"/>
				</linearGradient>
				<polygon class="st7" points="560.3,1158.7 123.1,889.3 245.5,813.2 560.3,1006.3 				"/>
				<polygon class="st8" points="245.5,813.2 123.1,889.3 60.6,253.1 201.4,338.9 				"/>
			</g>
			<g>
				<g>
					<polygon class="st9" points="293.1,382.1 344,382.1 473.1,540.7 473.1,382.1 526.7,382.1 526.7,629.3 478.6,629.3 350.8,470.7 
						352.2,629.3 293.1,629.3 					"/>
					<path class="st9" d="M822.1,494.5c0,0-8.3,5.8-20.6,14.3c-12.3,8.5-28.6,19.8-44.5,30.7L822.1,494.5H699.1v45H757
						c-2,5.3-6.9,16.5-18.4,25.7c-16.4,13.1-34.6,13-39.6,12.9c-25-1-41.3-15.8-46.1-20.4c-21-20.3-22.6-46.3-22.8-52.4
						c-0.2-5.4-0.5-28.1,16.3-47.8c1.1-1.3,21.5-24.2,53.6-24.1c6.1,0,16.6,0.9,27.9,6.4c18.8,9.2,27.3,25,30,30.5
						c16.1-8.8,32.1-17.7,48.2-26.5c-5.7-9.8-20.2-31.8-48.3-46.9c-24.5-13.2-47.4-14.8-58.7-14.8c-7.6,0.1-60.8,1.4-96.5,45.4
						c-25.8,31.9-27.1,67.2-27.1,78.2c0.1,8,1.5,57.1,42.1,92.7c33.2,29.2,71.3,30.8,81.5,30.8c8-0.1,55.8-1.2,91.5-40.5
						c30.7-33.8,32-73.4,32.1-83.1C822.5,502,822.3,498.3,822.1,494.5z"/>
				</g>
			</g>
			<text transform="matrix(1 0 0 1 300.9502 772.4826)" class="st9 st10 st11">BOLIVIA</text>
		</g>
	</g>
</g>
</svg>
