<?xml version="1.0" encoding="utf-8"?>
<!-- Generator: Adobe Illustrator 22.1.0, SVG Export Plug-In . SVG Version: 6.00 Build 0)  -->
<svg version="1.1" id="Layer_1" xmlns="http://www.w3.org/2000/svg" xmlns:xlink="http://www.w3.org/1999/xlink" x="0px" y="0px"
	 viewBox="0 0 341 376.2" style="enable-background:new 0 0 341 376.2;" xml:space="preserve">
<style type="text/css">
	.st0{fill:#FCFCFC;}
	.st1{fill:url(#SVGID_1_);}
	.st2{fill:url(#SVGID_2_);}
	.st3{fill:url(#SVGID_3_);}
	.st4{enable-background:new    ;}
</style>
<title>logo-white_1</title>
<g id="Layer_2_1_">
	<g id="Capa_1">
		<g>
			<polygon class="st0" points="170.9,47.9 170.4,47.7 169.9,47.9 169.9,0.2 170.4,0 170.9,0.2 			"/>
		</g>
		<g>
			<polygon class="st0" points="320.1,284.9 276.5,259 277.5,258.4 277.6,257.3 321.2,283.2 321.1,284.4 			"/>
		</g>
		<g>
			<g>
				<polygon class="st0" points="22.8,285.3 21.3,284.4 21.2,282.7 62.9,256.9 63.1,258.4 64.5,259.2 				"/>
			</g>
		</g>
		
			<linearGradient id="SVGID_1_" gradientUnits="userSpaceOnUse" x1="42.4903" y1="302.6293" x2="127.8403" y2="338.2493" gradientTransform="matrix(1 0 0 -1 0 378)">
			<stop  offset="0" style="stop-color:#C7C7C7;stop-opacity:0.8"/>
			<stop  offset="0.19" style="stop-color:#D2D2D2;stop-opacity:0.8"/>
			<stop  offset="0.69" style="stop-color:#EBEBEB"/>
			<stop  offset="1" style="stop-color:#FCFCFC"/>
		</linearGradient>
		<polygon class="st1" points="0,67.3 170.4,0 170.4,47.7 48,96.6 		"/>
		<polygon class="st0" points="170.4,0 341,66.7 295.1,96.6 170.4,47.7 		"/>
		
			<linearGradient id="SVGID_2_" gradientUnits="userSpaceOnUse" x1="316.6954" y1="282.0995" x2="305.1854" y2="166.2695" gradientTransform="matrix(1 0 0 -1 0 378)">
			<stop  offset="0" style="stop-color:#C7C7C7;stop-opacity:0.7"/>
			<stop  offset="0.19" style="stop-color:#D2D2D2;stop-opacity:0.8"/>
			<stop  offset="0.69" style="stop-color:#EBEBEB"/>
			<stop  offset="1" style="stop-color:#FCFCFC"/>
		</linearGradient>
		<polygon class="st2" points="341,66.7 321.1,284.4 277.5,258.4 295.1,96.6 		"/>
		<polygon class="st0" points="321.1,284.4 170.4,376.2 170.4,324.3 277.5,258.4 		"/>
		
			<linearGradient id="SVGID_3_" gradientUnits="userSpaceOnUse" x1="154.6517" y1="39.0529" x2="81.8417" y2="80.643" gradientTransform="matrix(1 0 0 -1 0 378)">
			<stop  offset="0" style="stop-color:#C7C7C7;stop-opacity:0.8"/>
			<stop  offset="0.19" style="stop-color:#D2D2D2;stop-opacity:0.8"/>
			<stop  offset="0.69" style="stop-color:#EBEBEB"/>
			<stop  offset="1" style="stop-color:#FCFCFC"/>
		</linearGradient>
		<polygon class="st3" points="170.4,376.2 21.3,284.4 63.1,258.4 170.4,324.3 		"/>
		<polygon class="st0" points="63.1,258.4 21.3,284.4 0,67.3 48,96.6 		"/>
		<polygon class="st0" points="79.3,111.4 96.7,111.4 140.7,165.4 140.7,111.4 159,111.4 159,195.7 142.6,195.7 99,141.6 
			99.5,195.7 79.3,195.7 		"/>
		<path class="st0" d="M259.7,149.7l-7,4.9c-4.2,2.9-9.7,6.7-15.2,10.5L259.7,149.7h-42v15.4h19.8c-1.3,3.4-3.4,6.5-6.3,8.8
			c-3.8,3-8.6,4.6-13.5,4.4c-5.9-0.3-11.5-2.8-15.7-6.9c-4.8-4.8-7.5-11.1-7.8-17.9c-0.2-5.9,1.8-11.8,5.6-16.3
			c0.4-0.4,7.3-8.3,18.3-8.2c3.3,0,6.5,0.8,9.5,2.2c4.5,2.2,8.1,5.9,10.2,10.4l16.4-9c-7.5-13-21.4-21.1-36.5-21.1
			c-2.6,0-20.8,0.5-32.9,15.5c-6,7.6-9.3,17-9.2,26.7c0,2.7,0.5,19.5,14.3,31.6c7.7,6.7,17.6,10.4,27.8,10.5c2.7,0,19-0.4,31.2-13.8
			c7-7.8,10.8-17.9,10.9-28.3L259.7,149.7z"/>
		<g class="st4">
			<path class="st0" d="M85.2,212.5h12.5c1.4,0,2.7,0.2,3.8,0.6c1.2,0.4,2.2,1,3.1,1.8c0.9,0.8,1.6,1.6,2.1,2.7
				c0.5,1,0.8,2.1,0.8,3.3c0,1.7-0.4,3.1-1.2,4.3c-0.8,1.1-1.8,2-3.1,2.6v0.4c1.6,0.6,3,1.5,4,2.8c1,1.3,1.5,2.8,1.5,4.7
				c0,1.4-0.3,2.6-0.8,3.7c-0.6,1.1-1.3,2-2.3,2.8c-1,0.8-2.1,1.4-3.3,1.8s-2.6,0.6-4.1,0.6h-13V212.5z M97.3,225.6
				c1.4,0,2.5-0.4,3.2-1.1c0.8-0.8,1.1-1.7,1.1-2.7s-0.4-1.9-1.1-2.7s-1.8-1.1-3.1-1.1h-6.2v7.6H97.3z M97.9,239
				c1.5,0,2.7-0.4,3.5-1.1c0.8-0.8,1.2-1.7,1.2-2.9s-0.4-2.2-1.2-3c-0.8-0.8-2-1.2-3.6-1.2h-6.5v8.2H97.9z"/>
			<path class="st0" d="M128.4,245.2c-2.4,0-4.6-0.4-6.6-1.3c-2-0.9-3.8-2-5.3-3.5c-1.5-1.5-2.7-3.3-3.5-5.3s-1.3-4.2-1.3-6.5
				s0.4-4.5,1.3-6.5c0.8-2,2-3.8,3.5-5.3c1.5-1.5,3.3-2.7,5.3-3.5s4.2-1.3,6.6-1.3c2.4,0,4.6,0.4,6.6,1.3c2,0.9,3.8,2,5.3,3.5
				c1.5,1.5,2.7,3.3,3.5,5.3c0.8,2,1.3,4.2,1.3,6.5s-0.4,4.5-1.3,6.5s-2,3.8-3.5,5.3c-1.5,1.5-3.3,2.7-5.3,3.5
				C133,244.8,130.8,245.2,128.4,245.2z M128.4,239.5c1.5,0,2.9-0.3,4.2-0.8c1.3-0.5,2.4-1.3,3.4-2.2c1-1,1.7-2.1,2.3-3.5
				c0.6-1.4,0.8-2.9,0.8-4.5c0-1.6-0.3-3.1-0.8-4.5c-0.6-1.4-1.3-2.5-2.3-3.5c-1-1-2.1-1.7-3.4-2.2c-1.3-0.5-2.7-0.8-4.2-0.8
				c-1.5,0-2.9,0.3-4.2,0.8c-1.3,0.5-2.4,1.3-3.4,2.2c-1,1-1.7,2.1-2.3,3.5c-0.6,1.4-0.8,2.9-0.8,4.5c0,1.6,0.3,3.1,0.8,4.5
				c0.5,1.4,1.3,2.5,2.3,3.5c1,1,2.1,1.7,3.4,2.2C125.6,239.2,126.9,239.5,128.4,239.5z"/>
			<path class="st0" d="M150,212.5h6v26.3h13.5v5.7H150V212.5z"/>
		</g>
		<g class="st4">
			<path class="st0" d="M173.9,212.5h6v32h-6V212.5z"/>
		</g>
		<g class="st4">
			<path class="st0" d="M183,212.5h6.5l6.6,19.2l1.2,4.1h0.4l1.2-4.1l6.9-19.2h6.5l-11.7,32h-6.3L183,212.5z"/>
			<path class="st0" d="M216,212.5h6v32h-6V212.5z"/>
			<path class="st0" d="M237.8,212.5h6.9l12,32h-6.7l-2.6-7.6h-12.3l-2.6,7.6h-6.7L237.8,212.5z M245.5,231.3l-2.9-8l-1.2-3.9h-0.4
				l-1.2,3.9l-2.9,8H245.5z"/>
		</g>
	</g>
</g>
</svg>
