<?xml version="1.0" encoding="utf-8"?>
<!-- Generator: Adobe Illustrator 22.1.0, SVG Export Plug-In . SVG Version: 6.00 Build 0)  -->
<svg version="1.1" id="Layer_1" xmlns="http://www.w3.org/2000/svg" xmlns:xlink="http://www.w3.org/1999/xlink" x="0px" y="0px"
	 viewBox="0 0 1111.7 1208.4" style="enable-background:new 0 0 1111.7 1208.4;" xml:space="preserve">
<style type="text/css">
	.st0{opacity:0.6;fill:#0074FF;enable-background:new    ;}
	.st1{opacity:0.6;fill:#0068FF;enable-background:new    ;}
	.st2{opacity:0.6;fill:#A700FF;enable-background:new    ;}
	.st3{fill:url(#SVGID_1_);}
	.st4{fill:#FDF035;}
	.st5{fill:url(#SVGID_2_);}
	.st6{fill:#05E053;}
	.st7{fill:url(#SVGID_3_);}
	.st8{fill:#FF0043;}
	.st9{fill:#FFFFFF;}
	.st10{enable-background:new    ;}
</style>
<title>logo</title>
<g>
	<polygon class="st0" points="573.7,51.3 1102.5,256.6 1040.7,925.8 573.7,1208.4 111.4,925.8 45.3,258.5 	"/>
	<polygon class="st1" points="537.5,0 1066.3,205.2 1004.5,874.5 537.5,1157.1 75.2,874.5 9.1,207.1 	"/>
	<polygon class="st2" points="560.3,28.6 1089.1,233.9 1027.3,903.1 560.3,1185.7 98,903.1 31.9,235.8 	"/>
	<g>
		
			<linearGradient id="SVGID_1_" gradientUnits="userSpaceOnUse" x1="191.1695" y1="927.4097" x2="389.6967" y2="1022.0015" gradientTransform="matrix(1 0 0 -1 0 1208)">
			<stop  offset="0" style="stop-color:#D20043"/>
			<stop  offset="1" style="stop-color:#FF0043"/>
		</linearGradient>
		<polygon class="st3" points="60,252.7 560.3,55 560.3,195.1 201,338.7 		"/>
		<polygon class="st4" points="560.3,55 1061,250.9 926.2,338.7 560.3,195.1 		"/>
		
			<linearGradient id="SVGID_2_" gradientUnits="userSpaceOnUse" x1="989.5681" y1="871.4935" x2="955.789" y2="531.5156" gradientTransform="matrix(1 0 0 -1 0 1208)">
			<stop  offset="0" style="stop-color:#D9D627"/>
			<stop  offset="5.021989e-02" style="stop-color:#DBD828"/>
			<stop  offset="0.6395" style="stop-color:#F4E931"/>
			<stop  offset="1" style="stop-color:#FDF035"/>
		</linearGradient>
		<polygon class="st5" points="1061,250.9 1002.4,889.6 874.4,813.4 926.2,338.7 		"/>
		<polygon class="st6" points="1002.4,889.6 560.3,1159.3 560.3,1006.8 874.4,813.4 		"/>
		
			<linearGradient id="SVGID_3_" gradientUnits="userSpaceOnUse" x1="513.9642" y1="158.1267" x2="300.2678" y2="280.1857" gradientTransform="matrix(1 0 0 -1 0 1208)">
			<stop  offset="0" style="stop-color:#05B253"/>
			<stop  offset="0.2079" style="stop-color:#05BE53"/>
			<stop  offset="0.6993" style="stop-color:#05D753"/>
			<stop  offset="1" style="stop-color:#05E053"/>
		</linearGradient>
		<polygon class="st7" points="560.3,1159.3 122.6,889.6 245.2,813.4 560.3,1006.8 		"/>
		<polygon class="st8" points="245.2,813.4 122.6,889.6 60,252.7 201,338.7 		"/>
	</g>
	<g>
		<g>
			<polygon class="st9" points="292.9,381.9 343.7,381.9 473.1,540.6 473.1,381.9 526.7,381.9 526.7,629.3 478.6,629.3 350.6,470.6 
				352,629.3 292.9,629.3 			"/>
			<path class="st9" d="M822.4,494.4c0,0-8.3,5.8-20.6,14.3c-12.3,8.5-28.6,19.8-44.6,30.7L822.4,494.4H699.2v45h58
				c-2,5.3-6.9,16.5-18.4,25.7c-16.4,13.1-34.6,13.1-39.7,12.9c-25-1-41.4-15.8-46.1-20.4c-21-20.3-22.6-46.3-22.8-52.4
				c-0.2-5.4-0.5-28.1,16.4-47.9c1.1-1.3,21.5-24.3,53.6-24.1c6.1,0,16.6,0.9,27.9,6.4c18.8,9.2,27.4,25,30,30.6
				c16.1-8.9,32.2-17.7,48.2-26.6c-5.7-9.8-20.2-31.8-48.4-47c-24.6-13.2-47.4-14.8-58.7-14.8c-7.6,0.1-60.9,1.4-96.6,45.5
				c-25.8,31.9-27.1,67.2-27.1,78.2c0.1,8,1.5,57.1,42.1,92.8c33.2,29.2,71.3,30.8,81.6,30.9c8-0.1,55.9-1.2,91.6-40.5
				c30.8-33.8,32-73.5,32.1-83.2C822.7,501.9,822.6,498.1,822.4,494.4z"/>
		</g>
	</g>
	<g class="st10">
		<path class="st9" d="M310.1,678.8h36.7c4,0,7.8,0.6,11.3,1.9c3.5,1.3,6.5,3,9.1,5.2c2.6,2.2,4.6,4.8,6.1,7.8
			c1.5,3,2.2,6.2,2.2,9.6c0,5-1.2,9.2-3.6,12.5c-2.4,3.4-5.4,5.9-9,7.7v1c4.8,1.7,8.7,4.5,11.6,8.2c2.9,3.7,4.4,8.3,4.4,13.8
			c0,4-0.8,7.6-2.4,10.8c-1.6,3.2-3.8,5.9-6.6,8.2c-2.8,2.3-6.1,4-9.8,5.2c-3.7,1.2-7.7,1.8-12,1.8h-38V678.8z M345.5,717.1
			c4.1,0,7.3-1.1,9.5-3.3c2.2-2.2,3.3-4.9,3.3-7.9c0-3.1-1.1-5.7-3.3-7.9c-2.2-2.2-5.2-3.3-9-3.3h-18.2v22.4H345.5z M347.5,756.4
			c4.5,0,7.9-1.1,10.2-3.3c2.4-2.2,3.5-5.1,3.5-8.6c0-3.5-1.2-6.4-3.6-8.7c-2.4-2.3-6-3.5-10.7-3.5h-19.1v24.1H347.5z"/>
		<path class="st9" d="M437,774.8c-7,0-13.5-1.3-19.5-3.8c-6-2.5-11.2-6-15.5-10.4c-4.4-4.4-7.8-9.6-10.3-15.6
			c-2.5-6-3.7-12.4-3.7-19.2s1.2-13.2,3.7-19.2c2.5-6,5.9-11.2,10.3-15.6c4.4-4.4,9.5-7.9,15.5-10.4c6-2.5,12.5-3.8,19.5-3.8
			c7,0,13.5,1.3,19.5,3.8c6,2.5,11.2,6,15.5,10.4c4.4,4.4,7.8,9.6,10.3,15.6c2.5,6,3.7,12.4,3.7,19.2s-1.2,13.2-3.7,19.2
			c-2.5,6-5.9,11.2-10.3,15.6c-4.4,4.4-9.5,7.9-15.5,10.4C450.5,773.5,444,774.8,437,774.8z M437,758c4.4,0,8.5-0.8,12.3-2.4
			s7.1-3.8,10-6.6c2.8-2.8,5.1-6.2,6.7-10.2c1.6-4,2.4-8.4,2.4-13.2c0-4.8-0.8-9.2-2.4-13.2c-1.6-4-3.8-7.4-6.7-10.2
			c-2.8-2.8-6.2-5-10-6.6s-7.9-2.4-12.3-2.4c-4.4,0-8.5,0.8-12.3,2.4c-3.8,1.6-7.1,3.8-10,6.6c-2.8,2.8-5.1,6.2-6.7,10.2
			c-1.6,4-2.4,8.4-2.4,13.2c0,4.8,0.8,9.2,2.4,13.2c1.6,4,3.8,7.4,6.7,10.2c2.8,2.8,6.2,5,10,6.6C428.6,757.2,432.6,758,437,758z"/>
		<path class="st9" d="M500.3,678.8H518v77.1h39.7v16.8h-57.4V678.8z"/>
		<path class="st9" d="M570.3,678.8H588v93.9h-17.7V678.8z"/>
		<path class="st9" d="M597.1,678.8h19.1l19.4,56.5l3.4,12.1h1l3.7-12.1l20.2-56.5h19.1l-34.2,93.9h-18.6L597.1,678.8z"/>
		<path class="st9" d="M694.1,678.8h17.7v93.9h-17.7V678.8z"/>
		<path class="st9" d="M758.1,678.8h20.2l35.3,93.9H794l-7.7-22.4h-36.2l-7.7,22.4h-19.5L758.1,678.8z M780.5,734l-8.4-23.5
			l-3.4-11.4h-1l-3.4,11.4l-8.4,23.5H780.5z"/>
	</g>
</g>
</svg>
