<?xml version="1.0" encoding="utf-8"?>
<!-- Generator: Adobe Illustrator 22.1.0, SVG Export Plug-In . SVG Version: 6.00 Build 0)  -->
<svg version="1.1" id="Layer_1" xmlns="http://www.w3.org/2000/svg" xmlns:xlink="http://www.w3.org/1999/xlink" x="0px" y="0px"
	 viewBox="0 0 1111.7 1208.4" style="enable-background:new 0 0 1111.7 1208.4;" xml:space="preserve">
<style type="text/css">
	.st0{opacity:0.6;fill:#0074FF;enable-background:new    ;}
	.st1{opacity:0.6;fill:#0068FF;enable-background:new    ;}
	.st2{opacity:0.6;fill:#A700FF;enable-background:new    ;}
	.st3{fill:url(#SVGID_1_);}
	.st4{fill:#FDF035;}
	.st5{fill:url(#SVGID_2_);}
	.st6{fill:#05E053;}
	.st7{fill:url(#SVGID_3_);}
	.st8{fill:#FF0043;}
	.st9{fill:#FFFFFF;}
	.st10{enable-background:new    ;}
</style>
<title>logo-light</title>
<g>
	<g id="Layer_2_1_">
		<g>
			<polygon class="st0" points="573.7,51.9 1102,256.9 1040.2,925.5 573.7,1207.8 111.9,925.5 45.9,258.8 			"/>
			<polygon class="st1" points="537.5,0.6 1065.8,205.6 1004,874.2 537.5,1156.5 75.7,874.2 9.7,207.5 			"/>
			<polygon class="st2" points="560.3,29.2 1088.6,234.2 1026.8,902.8 560.3,1185.1 98.5,902.8 32.5,236.2 			"/>
			<g>
				
					<linearGradient id="SVGID_1_" gradientUnits="userSpaceOnUse" x1="191.5592" y1="927.0524" x2="389.8794" y2="1021.5455" gradientTransform="matrix(1 0 0 -1 0 1208)">
					<stop  offset="0" style="stop-color:#D20043"/>
					<stop  offset="1" style="stop-color:#FF0043"/>
				</linearGradient>
				<polygon class="st3" points="60.6,253.1 560.3,55.6 560.3,195.5 201.4,338.9 				"/>
				<polygon class="st4" points="560.3,55.6 1060.5,251.3 925.8,338.9 560.3,195.5 				"/>
				
					<linearGradient id="SVGID_2_" gradientUnits="userSpaceOnUse" x1="989.165" y1="871.2096" x2="955.4211" y2="531.5861" gradientTransform="matrix(1 0 0 -1 0 1208)">
					<stop  offset="0" style="stop-color:#D9D627"/>
					<stop  offset="5.021989e-02" style="stop-color:#DBD828"/>
					<stop  offset="0.6395" style="stop-color:#F4E931"/>
					<stop  offset="1" style="stop-color:#FDF035"/>
				</linearGradient>
				<polygon class="st5" points="1060.5,251.3 1002,889.3 874.1,813.2 925.8,338.9 				"/>
				<polygon class="st6" points="1002,889.3 560.3,1158.7 560.3,1006.3 874.1,813.2 				"/>
				
					<linearGradient id="SVGID_3_" gradientUnits="userSpaceOnUse" x1="514.0063" y1="158.5884" x2="300.5325" y2="280.5202" gradientTransform="matrix(1 0 0 -1 0 1208)">
					<stop  offset="0" style="stop-color:#05B253"/>
					<stop  offset="0.2079" style="stop-color:#05BE53"/>
					<stop  offset="0.6993" style="stop-color:#05D753"/>
					<stop  offset="1" style="stop-color:#05E053"/>
				</linearGradient>
				<polygon class="st7" points="560.3,1158.7 123.1,889.3 245.5,813.2 560.3,1006.3 				"/>
				<polygon class="st8" points="245.5,813.2 123.1,889.3 60.6,253.1 201.4,338.9 				"/>
			</g>
			<g>
				<g>
					<polygon class="st9" points="293.1,382.1 344,382.1 473.1,540.7 473.1,382.1 526.7,382.1 526.7,629.3 478.6,629.3 350.8,470.7 
						352.2,629.3 293.1,629.3 					"/>
					<path class="st9" d="M822.1,494.5c0,0-8.3,5.8-20.6,14.3s-28.6,19.8-44.5,30.7L822.1,494.5h-123v45H757
						c-2,5.3-6.9,16.5-18.4,25.7c-16.4,13.1-34.6,13-39.6,12.9c-25-1-41.3-15.8-46.1-20.4c-21-20.3-22.6-46.3-22.8-52.4
						c-0.2-5.4-0.5-28.1,16.3-47.8c1.1-1.3,21.5-24.2,53.6-24.1c6.1,0,16.6,0.9,27.9,6.4c18.8,9.2,27.3,25,30,30.5
						c16.1-8.8,32.1-17.7,48.2-26.5c-5.7-9.8-20.2-31.8-48.3-46.9c-24.5-13.2-47.4-14.8-58.7-14.8c-7.6,0.1-60.8,1.4-96.5,45.4
						c-25.8,31.9-27.1,67.2-27.1,78.2c0.1,8,1.5,57.1,42.1,92.7c33.2,29.2,71.3,30.8,81.5,30.8c8-0.1,55.8-1.2,91.5-40.5
						c30.7-33.8,32-73.4,32.1-83.1C822.5,502,822.3,498.3,822.1,494.5z"/>
				</g>
			</g>
			<g class="st10">
				<path class="st9" d="M310.4,678.7H347c4,0,7.8,0.6,11.3,1.9c3.5,1.3,6.5,3,9.1,5.2c2.6,2.2,4.6,4.8,6.1,7.8
					c1.5,3,2.2,6.2,2.2,9.6c0,5-1.2,9.1-3.6,12.5c-2.4,3.4-5.4,5.9-9,7.7v1c4.8,1.7,8.7,4.5,11.6,8.2c2.9,3.7,4.4,8.3,4.4,13.8
					c0,4-0.8,7.6-2.4,10.8c-1.6,3.2-3.8,5.9-6.6,8.2c-2.8,2.3-6,4-9.8,5.2c-3.7,1.2-7.7,1.8-12,1.8h-38V678.7z M345.7,717
					c4.1,0,7.3-1.1,9.5-3.3c2.2-2.2,3.3-4.9,3.3-7.9c0-3.1-1.1-5.7-3.3-7.9c-2.2-2.2-5.2-3.3-9-3.3h-18.2V717H345.7z M347.7,756.2
					c4.5,0,7.9-1.1,10.2-3.3c2.4-2.2,3.5-5.1,3.5-8.6c0-3.5-1.2-6.4-3.6-8.7c-2.4-2.3-6-3.5-10.7-3.5h-19.1v24.1H347.7z"/>
				<path class="st9" d="M437.1,774.6c-7,0-13.5-1.3-19.4-3.8c-6-2.5-11.2-6-15.5-10.4c-4.4-4.4-7.8-9.6-10.3-15.6
					c-2.5-6-3.7-12.4-3.7-19.2s1.2-13.2,3.7-19.2c2.5-6,5.9-11.2,10.3-15.6c4.4-4.4,9.5-7.9,15.5-10.4c6-2.5,12.5-3.8,19.4-3.8
					c7,0,13.5,1.3,19.4,3.8c6,2.5,11.2,6,15.5,10.4c4.4,4.4,7.8,9.6,10.3,15.6c2.5,6,3.7,12.4,3.7,19.2s-1.2,13.2-3.7,19.2
					c-2.5,6-5.9,11.2-10.3,15.6c-4.4,4.4-9.5,7.9-15.5,10.4C450.6,773.3,444.1,774.6,437.1,774.6z M437.1,757.8
					c4.4,0,8.4-0.8,12.2-2.4c3.8-1.6,7.1-3.8,10-6.5c2.8-2.8,5.1-6.2,6.7-10.1c1.6-4,2.4-8.4,2.4-13.2c0-4.8-0.8-9.2-2.4-13.2
					c-1.6-4-3.8-7.4-6.7-10.1c-2.8-2.8-6.2-5-10-6.5s-7.9-2.4-12.2-2.4c-4.4,0-8.4,0.8-12.2,2.4c-3.8,1.6-7.1,3.8-10,6.5
					c-2.8,2.8-5.1,6.2-6.7,10.1c-1.6,4-2.4,8.4-2.4,13.2c0,4.8,0.8,9.2,2.4,13.2c1.6,4,3.8,7.4,6.7,10.1c2.8,2.8,6.2,5,10,6.5
					C428.7,757,432.8,757.8,437.1,757.8z"/>
				<path class="st9" d="M500.4,678.7h17.7v77h39.7v16.8h-57.4V678.7z"/>
				<path class="st9" d="M570.3,678.7H588v93.8h-17.7V678.7z"/>
				<path class="st9" d="M597,678.7h19.1l19.4,56.4l3.4,12h1l3.7-12l20.2-56.4h19.1l-34.2,93.8h-18.6L597,678.7z"/>
				<path class="st9" d="M693.9,678.7h17.7v93.8h-17.7V678.7z"/>
				<path class="st9" d="M757.8,678.7H778l35.2,93.8h-19.5l-7.7-22.4h-36.1l-7.7,22.4h-19.5L757.8,678.7z M780.2,733.9l-8.4-23.4
					l-3.4-11.4h-1l-3.4,11.4l-8.4,23.4H780.2z"/>
			</g>
		</g>
	</g>
</g>
</svg>
