<svg xmlns="http://www.w3.org/2000/svg" xmlns:xlink="http://www.w3.org/1999/xlink" viewBox="0 0 341.02 376.23"><defs><style>.cls-1{fill:url(#linear-gradient);}.cls-2,.cls-5{fill:#f4f4f4;}.cls-3{fill:url(#linear-gradient-2);}.cls-4{fill:url(#linear-gradient-3);}.cls-5{font-size:44.66px;font-family:ProductSans-Bold, Product Sans;font-weight:700;}.cls-6{letter-spacing:-0.02em;}.cls-7{letter-spacing:0em;}</style><linearGradient id="linear-gradient" x1="42.49" y1="75.37" x2="127.84" y2="39.75" gradientUnits="userSpaceOnUse"><stop offset="0" stop-color="#c7c7c7"/><stop offset="0.19" stop-color="#d2d2d2"/><stop offset="0.69" stop-color="#ebebeb"/><stop offset="1" stop-color="#f4f4f4"/></linearGradient><linearGradient id="linear-gradient-2" x1="316.69" y1="95.9" x2="305.18" y2="211.73" xlink:href="#linear-gradient"/><linearGradient id="linear-gradient-3" x1="154.65" y1="338.95" x2="81.84" y2="297.36" xlink:href="#linear-gradient"/></defs><title>logo-white_1</title><g id="Layer_2" data-name="Layer 2"><g id="Capa_1" data-name="Capa 1"><polygon class="cls-1" points="0 67.35 170.43 0 170.43 47.73 48.02 96.64 0 67.35"/><polygon class="cls-2" points="170.43 0 341.02 66.73 295.08 96.64 170.43 47.73 170.43 0"/><polygon class="cls-3" points="341.02 66.73 321.07 284.35 277.45 258.37 295.08 96.64 341.02 66.73"/><polygon class="cls-2" points="321.07 284.35 170.43 376.23 170.43 324.26 277.45 258.37 321.07 284.35"/><polygon class="cls-4" points="170.43 376.23 21.32 284.35 63.08 258.37 170.43 324.26 170.43 376.23"/><polygon class="cls-2" points="63.08 258.37 21.32 284.35 0 67.35 48.02 96.64 63.08 258.37"/><polygon class="cls-2" points="79.32 111.37 96.66 111.37 140.72 165.45 140.72 111.37 158.99 111.37 158.99 195.66 142.59 195.66 99 141.58 99.47 195.66 79.32 195.66 79.32 111.37"/><path class="cls-2" d="M259.74,149.7l-7,4.87c-4.19,2.9-9.74,6.74-15.19,10.47l22.22-15.34h-42v15.35h19.76a20.23,20.23,0,0,1-6.27,8.76,20.59,20.59,0,0,1-13.52,4.39A24.31,24.31,0,0,1,202,171.26a26.54,26.54,0,0,1-7.76-17.86,24,24,0,0,1,5.57-16.31c.37-.43,7.33-8.27,18.27-8.22a21.89,21.89,0,0,1,9.5,2.19,22.52,22.52,0,0,1,10.23,10.42l16.43-9a42.07,42.07,0,0,0-36.5-21.06c-2.58,0-20.75.47-32.91,15.49a42.6,42.6,0,0,0-9.23,26.65c0,2.73.52,19.46,14.34,31.63a43.21,43.21,0,0,0,27.8,10.52c2.72,0,19-.4,31.22-13.81a43.09,43.09,0,0,0,10.93-28.34Z"/><text class="cls-5" transform="translate(81.99 244.5)">BOL<tspan class="cls-6" x="88.66" y="0">I</tspan><tspan class="cls-7" x="100.45" y="0">VIA</tspan></text></g></g></svg>