<?xml version="1.0" encoding="utf-8"?>
<!-- Generator: Adobe Illustrator 22.1.0, SVG Export Plug-In . SVG Version: 6.00 Build 0)  -->
<svg version="1.1" id="Layer_1" xmlns="http://www.w3.org/2000/svg" xmlns:xlink="http://www.w3.org/1999/xlink" x="0px" y="0px"
	 viewBox="0 0 1111.7 1208.4" style="enable-background:new 0 0 1111.7 1208.4;" xml:space="preserve">
<style type="text/css">
	.st0{opacity:0.6;fill:#0074FF;}
	.st1{opacity:0.6;fill:#0068FF;}
	.st2{opacity:0.6;fill:#A700FF;}
	.st3{fill:url(#SVGID_1_);}
	.st4{fill:#FDF035;}
	.st5{fill:url(#SVGID_2_);}
	.st6{fill:#05E053;}
	.st7{fill:url(#SVGID_3_);}
	.st8{fill:#FF0043;}
	.st9{fill:#FFFFFF;}
	.st10{font-family:'ProductSans-Bold';}
	.st11{font-size:131.0909px;}
</style>
<title>logo</title>
<g>
	<polygon class="st0" points="573.7,51.3 1102.5,256.6 1040.7,925.8 573.7,1208.4 111.4,925.8 45.3,258.5 	"/>
	<polygon class="st1" points="537.5,0 1066.3,205.2 1004.5,874.5 537.5,1157.1 75.2,874.5 9.1,207.1 	"/>
	<polygon class="st2" points="560.3,28.6 1089.1,233.9 1027.3,903.1 560.3,1185.7 98,903.1 31.9,235.8 	"/>
	<g>
		<linearGradient id="SVGID_1_" gradientUnits="userSpaceOnUse" x1="191.1775" y1="280.6071" x2="389.7047" y2="186.0153">
			<stop  offset="0" style="stop-color:#D20043"/>
			<stop  offset="1" style="stop-color:#FF0043"/>
		</linearGradient>
		<polygon class="st3" points="60,252.7 560.3,55 560.3,195.1 201,338.7 		"/>
		<polygon class="st4" points="560.3,55 1061,250.9 926.2,338.7 560.3,195.1 		"/>
		<linearGradient id="SVGID_2_" gradientUnits="userSpaceOnUse" x1="989.5768" y1="336.5074" x2="955.7977" y2="676.4852">
			<stop  offset="0" style="stop-color:#D9D627"/>
			<stop  offset="5.021989e-02" style="stop-color:#DBD828"/>
			<stop  offset="0.6395" style="stop-color:#F4E931"/>
			<stop  offset="1" style="stop-color:#FDF035"/>
		</linearGradient>
		<polygon class="st5" points="1061,250.9 1002.4,889.6 874.4,813.4 926.2,338.7 		"/>
		<polygon class="st6" points="1002.4,889.6 560.3,1159.3 560.3,1006.8 874.4,813.4 		"/>
		<linearGradient id="SVGID_3_" gradientUnits="userSpaceOnUse" x1="513.9653" y1="1049.8715" x2="300.2688" y2="927.8125">
			<stop  offset="0" style="stop-color:#05B253"/>
			<stop  offset="0.2079" style="stop-color:#05BE53"/>
			<stop  offset="0.6993" style="stop-color:#05D753"/>
			<stop  offset="1" style="stop-color:#05E053"/>
		</linearGradient>
		<polygon class="st7" points="560.3,1159.3 122.6,889.6 245.2,813.4 560.3,1006.8 		"/>
		<polygon class="st8" points="245.2,813.4 122.6,889.6 60,252.7 201,338.7 		"/>
	</g>
	<g>
		<g>
			<polygon class="st9" points="292.9,381.9 343.7,381.9 473.1,540.6 473.1,381.9 526.7,381.9 526.7,629.3 478.6,629.3 350.6,470.6 
				352,629.3 292.9,629.3 			"/>
			<path class="st9" d="M822.4,494.4c0,0-8.3,5.8-20.6,14.3c-12.3,8.5-28.6,19.8-44.6,30.7L822.4,494.4H699.2v45h58
				c-2,5.3-6.9,16.5-18.4,25.7c-16.4,13.1-34.6,13.1-39.7,12.9c-25-1-41.4-15.8-46.1-20.4c-21-20.3-22.6-46.3-22.8-52.4
				c-0.2-5.4-0.5-28.1,16.4-47.9c1.1-1.3,21.5-24.3,53.6-24.1c6.1,0,16.6,0.9,27.9,6.4c18.8,9.2,27.4,25,30,30.6
				c16.1-8.9,32.2-17.7,48.2-26.6c-5.7-9.8-20.2-31.8-48.4-47c-24.6-13.2-47.4-14.8-58.7-14.8c-7.6,0.1-60.9,1.4-96.6,45.5
				c-25.8,31.9-27.1,67.2-27.1,78.2c0.1,8,1.5,57.1,42.1,92.8c33.2,29.2,71.3,30.8,81.6,30.9c8-0.1,55.9-1.2,91.6-40.5
				c30.8-33.8,32-73.5,32.1-83.2C822.7,501.9,822.6,498.1,822.4,494.4z"/>
		</g>
	</g>
	<text transform="matrix(1 0 0 1 300.6838 772.6582)" class="st9 st10 st11">BOLIVIA</text>
</g>
</svg>
